<?xml version="1.0" encoding="UTF-8"?>
<svg id="Layer_1" data-name="Layer 1" xmlns="http://www.w3.org/2000/svg" viewBox="0 0 462.49 128.48">
  <defs>
    <style>
      .cls-1 {
        fill: #fff;
        stroke-width: 0px;
      }
    </style>
  </defs>
  <g>
    <path class="cls-1" d="M176.68,53.15c1.37.48,2.43,1.18,3.17,2.07s1.11,1.96,1.11,3.17-.36,2.25-1.08,3.17-1.7,1.56-2.93,1.92c1.44.29,2.59.98,3.45,2.07s1.3,2.39,1.3,3.89c0,1.33-.38,2.49-1.15,3.49-.76,1-1.85,1.77-3.25,2.31s-3.04.81-4.9.81h-12.1v-23.63h11.59c1.82,0,3.42.24,4.79.72ZM173.17,61.14c.4-.37.61-.87.61-1.5s-.2-1.08-.61-1.43c-.41-.35-.96-.52-1.65-.52h-4.25v4.01h4.25c.7,0,1.25-.19,1.65-.56ZM173.66,70.22c.53-.4.79-.95.79-1.65,0-.65-.26-1.16-.79-1.53-.53-.37-1.24-.54-2.14-.52h-4.25v4.28h4.25c.9.02,1.61-.17,2.14-.57Z"/>
    <path class="cls-1" d="M205.16,76.06l-3.14-6.37h-3.71v6.37h-7.01v-23.63h11.02c3.17,0,5.62.73,7.36,2.19,1.74,1.46,2.61,3.53,2.61,6.2,0,1.73-.34,3.23-1.03,4.5-.69,1.27-1.67,2.28-2.95,3.02l4.79,7.72h-7.95ZM198.32,64.29h4.01c1.06,0,1.87-.28,2.44-.84.57-.56.86-1.37.86-2.43s-.29-1.83-.86-2.38c-.57-.55-1.39-.82-2.44-.82h-4.01v6.47Z"/>
    <path class="cls-1" d="M238.4,72.28h-9.54l-1.42,3.78h-7.21l10.08-23.63h7.21l9.74,23.63h-7.48l-1.38-3.78ZM236.54,67.16l-2.83-7.72-2.9,7.72h5.73Z"/>
    <path class="cls-1" d="M262.73,52.43v23.63h-7.01v-23.63h7.01Z"/>
    <path class="cls-1" d="M295.87,52.43v23.63h-5.97l-10.01-13.15v13.15h-6.44v-23.63h6l10.01,13.18v-13.18h6.4Z"/>
    <path class="cls-1" d="M318.27,55.34c-1.16-.33-2.24-.49-3.25-.49-1.53,0-2.75.3-3.66.89-.91.6-1.36,1.4-1.36,2.41,0,.9.26,1.63.77,2.19.52.56,1.16,1.01,1.92,1.33.76.33,1.81.69,3.14,1.1,1.62.52,2.91,1,3.89,1.45s1.81,1.12,2.49,2c.69.89,1.03,2.05,1.03,3.49,0,1.3-.35,2.45-1.06,3.44-.71.99-1.71,1.75-3,2.29s-2.78.81-4.47.81-3.33-.33-4.92-.99c-1.6-.66-2.97-1.54-4.11-2.65l1.21-2.33c1.08,1.06,2.32,1.88,3.73,2.46,1.4.59,2.78.88,4.13.88,1.71,0,3.06-.33,4.04-.99.99-.66,1.48-1.58,1.48-2.75,0-.92-.26-1.67-.78-2.26-.52-.58-1.16-1.04-1.92-1.36s-1.83-.7-3.2-1.13c-1.57-.47-2.85-.93-3.82-1.38-.98-.45-1.81-1.11-2.49-1.99-.69-.88-1.03-2.02-1.03-3.44,0-1.21.34-2.28,1.01-3.2.67-.92,1.63-1.64,2.87-2.14,1.24-.5,2.66-.76,4.28-.76,1.35,0,2.69.2,4.01.59,1.33.39,2.48.93,3.47,1.6l-1.15,2.39c-1.01-.65-2.1-1.14-3.25-1.47Z"/>
    <path class="cls-1" d="M351.17,54.53c1.61,1.38,2.41,3.33,2.41,5.85s-.8,4.6-2.41,6.03-3.87,2.16-6.79,2.16h-6.17v7.48h-2.7v-23.6h8.86c2.92,0,5.19.69,6.79,2.07ZM349.23,64.65c1.17-.95,1.75-2.35,1.75-4.2s-.58-3.16-1.75-4.1c-1.17-.93-2.82-1.4-4.96-1.4h-6.07v11.12h6.07c2.13,0,3.79-.48,4.96-1.43Z"/>
    <path class="cls-1" d="M378.39,70.02h-12.84l-2.63,6.03h-2.87l10.59-23.6h2.8l10.55,23.6h-2.93l-2.66-6.03ZM377.31,67.53l-5.36-12.13-5.29,12.13h10.65Z"/>
    <path class="cls-1" d="M407.73,55.51c-1.22-.53-2.48-.79-3.76-.79-1.75,0-3.37.42-4.84,1.26-1.47.84-2.64,1.99-3.49,3.46s-1.28,3.06-1.28,4.79.43,3.29,1.28,4.75c.85,1.46,2.02,2.62,3.49,3.47,1.47.85,3.08,1.28,4.84,1.28,1.28,0,2.53-.25,3.74-.76,1.21-.5,2.29-1.21,3.24-2.11l1.65,1.79c-1.19,1.12-2.55,2.01-4.06,2.65s-3.08.96-4.7.96c-2.22,0-4.27-.53-6.13-1.6-1.86-1.07-3.34-2.52-4.43-4.37-1.09-1.84-1.64-3.86-1.64-6.07s.55-4.19,1.65-6.02c1.1-1.83,2.59-3.28,4.47-4.35,1.88-1.07,3.94-1.6,6.19-1.6,1.6,0,3.15.3,4.65.91s2.83,1.46,3.98,2.56l-1.62,1.96c-.92-.92-1.99-1.65-3.22-2.17Z"/>
    <path class="cls-1" d="M440.21,52.46v2.49h-13.31v7.92h11.9v2.46h-11.9v8.22h13.75v2.49h-16.45v-23.6h16.01Z"/>
  </g>
  <path class="cls-1" d="M22.31,68.08c-.92-5.17-.49-10.58,1.2-15.54.47-1.39,1-2.76,1.56-4.11.27-.65.7-1.23,1.01-1.86,1.09-2.22,2.57-4.19,4.07-6.14,3.34-4.3,7.38-7.84,11.87-10.91,3.96-2.7,8.19-4.86,12.63-6.63,4.04-1.61,8.19-2.82,12.46-3.61,2.12-.39,4.25-.73,6.39-.99,3.78-.45,7.58-.53,11.38-.38,4.43.18,8.8.82,13.09,1.91,3.56.9,7.02,2.09,10.37,3.61,3.6,1.63,6.96,3.64,10.07,6.06,1.44,1.12,2.77,2.4,4.08,3.68,2.17,2.12,3.98,4.54,5.5,7.17,1.58,2.74,2.76,5.65,3.48,8.74.6,2.55.91,5.13.88,7.76-.04,2.8-.51,5.53-1.22,8.23-.85,3.2-2.23,6.16-3.89,9-.61,1.04-1.29,2.04-2.01,3.01-.94,1.27-1.73,2.64-2.43,4.04-1.12,2.23-2.24,4.48-3.21,6.78-1.32,3.13-2.24,6.39-2.59,9.79-.22,2.19-.15,4.37.72,6.42.53,1.25,1.77,2.31,1.8,3.74.05,2.68-3.62,2.77-5.51,2.77-4.26,0-8.11-1.93-11.65-4.13-3.05-1.9-5.78-4.22-8.38-6.7-2.23-2.13-4.43-4.3-6.71-6.38-1.51-1.38-3.16-2.6-4.96-3.61-2.3-1.3-4.74-1.63-7.31-1.19-1.17.2-2.36.16-3.45-.25-2.31-.86-4.01-2.44-4.55-4.91-.86-3.86,1-7.08,4.5-8.32,2.38-.85,4.88-1.08,7.4-.96,3.6.18,6.89,1.29,9.85,3.35,1.63,1.13,2.95,2.58,4.13,4.17,1.24,1.67,2.25,3.48,3.25,5.29,1.66,3,3.48,5.91,5.4,8.76.07.1.15.2.31.26-.03-.16-.04-.32-.09-.47-.62-2.11-1.11-4.26-1.45-6.43-.42-2.66-.67-5.35-.69-8.05,0-1.1-.05-2.2-.17-3.29-.29-2.6-1.42-4.82-3.18-6.73-1.77-1.91-3.9-3.31-6.28-4.36-2.94-1.3-6.02-1.93-9.21-2.1-3.95-.21-7.78.34-11.53,1.57-3.62,1.19-6.84,3.06-9.63,5.65-1.89,1.76-3.3,3.87-4.21,6.29-.25.66-.42,1.36-.57,2.06-.61,2.81-2.37,4.55-5.09,5.29-1.92.53-4.01.11-5.64-1.02-1.96-1.36-2.86-3.5-3.16-5.8-.26-2.05-.25-4.1.04-6.13.16-1.15.45-2.29.78-3.4.62-2.08,1.6-4,2.74-5.84,1.39-2.23,3.08-4.2,5-6,3.44-3.22,7.37-5.68,11.69-7.52,3.33-1.41,6.78-2.39,10.34-3.01,2.75-.48,5.52-.74,8.3-.75,2.68,0,5.34.24,7.98.68,3.17.53,6.21,1.45,9.15,2.72,3.31,1.43,6.34,3.32,8.99,5.79,2.28,2.13,4.16,4.55,5.48,7.39,1.17,2.53,1.93,5.16,1.98,7.97.03,1.95-.09,3.87-.54,5.77-.36,1.53-.71,3.06-1.03,4.6-.37,1.79-.71,3.59-1.06,5.39-.02.09.01.19.03.45.15-.24.25-.35.29-.48.93-3.36,2.38-6.52,3.78-9.69,1.14-2.59,2.2-5.21,2.88-7.96.6-2.45.84-4.94.51-7.44-.36-2.74-1.16-5.34-2.51-7.77-.8-1.44-1.71-2.8-2.75-4.07-1.01-1.23-2.11-2.39-3.39-3.36-1.17-.89-2.29-1.83-3.51-2.65-1.99-1.33-4.15-2.37-6.36-3.3-3.34-1.41-6.81-2.32-10.36-2.95-1.97-.35-3.97-.56-5.98-.59-2-.03-4.01-.08-6.01.03-4.52.24-8.95,1.05-13.28,2.37-3.89,1.19-7.61,2.8-11.11,4.87-2.46,1.45-4.74,3.14-6.88,5.04-2.9,2.58-5.32,5.53-7.2,8.92-1.17,2.11-1.99,4.35-2.52,6.7-.58,2.55-.71,5.12-.4,7.72.25,2.17-.32,4.04-2.03,5.45-1.68,1.38-3.94,1.89-5.99,1.08-2.45-.96-3.52-3.45-4.35-5.76-.56-1.57-.99-3.18-1.28-4.82ZM118.27,79.81s.1.04.15.06c.11-.18.22-.35.31-.54,1.06-2.13,2.36-4.11,3.72-6.06,1.22-1.76,2.19-3.65,3.04-5.62,1.3-3,2.06-6.13,2.31-9.38.29-3.79-.24-7.5-1.53-11.07-.9-2.48-2.11-4.81-3.65-6.96-1.97-2.74-4.28-5.13-6.93-7.2-4.42-3.44-9.35-5.93-14.64-7.69-2.92-.97-5.92-1.69-8.97-2.19-2.34-.39-4.7-.64-7.07-.75-4.73-.21-9.44,0-14.13.73-3.78.59-7.49,1.46-11.12,2.64-3.99,1.3-7.82,2.95-11.47,5.04-5.27,3.01-9.96,6.73-13.9,11.38-2.33,2.76-4.24,5.76-5.66,9.08-1.84,4.3-2.71,8.76-2.35,13.44.15,1.9.49,3.78,1.05,5.59.28.91.61,1.8.99,2.67.33.76.66,1.67,1.68,1.55,1-.12,1.55-.86,1.42-1.83-.3-2.23-.28-4.46,0-6.7.26-2.02.72-3.99,1.41-5.89.71-1.97,1.63-3.85,2.71-5.64,2.91-4.8,6.72-8.73,11.24-12.02,2.5-1.82,5.15-3.38,7.93-4.73,2.6-1.26,5.28-2.34,8.05-3.16,4.1-1.21,8.28-2.05,12.55-2.39,3.88-.31,7.77-.32,11.63.11,2.59.29,5.16.73,7.68,1.42,2.92.8,5.76,1.79,8.5,3.06,3.29,1.52,6.33,3.43,9.09,5.78,2.04,1.74,3.86,3.68,5.42,5.89,1.67,2.36,3.03,4.86,3.87,7.64,1.03,3.38,1.54,6.79,1.04,10.33-.34,2.43-.91,4.78-1.76,7.07-.72,1.92-1.57,3.78-2.36,5.67-.1.23-.19.46-.28.69ZM105.52,92.3s.09-.02.13-.03c.01-.12.02-.23.03-.35.09-1.23.15-2.46.29-3.68.12-1.07.3-2.13.48-3.19.26-1.49.5-2.98.82-4.45.59-2.65,1.3-5.27,1.58-7.98.14-1.43.07-2.85-.19-4.25-.19-.98-.51-1.94-.87-2.89-.6-1.57-1.39-3.01-2.4-4.33-1.13-1.47-2.43-2.78-3.89-3.95-3.17-2.53-6.78-4.18-10.65-5.27-2.51-.7-5.07-1.19-7.69-1.37-2.57-.18-5.14-.19-7.69.1-2.9.32-5.75.85-8.54,1.74-4.48,1.43-8.66,3.41-12.34,6.37-3.64,2.92-6.59,6.38-8.23,10.81-1.03,2.78-1.32,5.73-.94,8.67.19,1.43,1.03,2.91,2.64,2.92,1.19,0,2.12-.83,2.37-1.95.16-.69.31-1.39.52-2.07.9-2.92,2.51-5.43,4.57-7.66,2.18-2.35,4.74-4.2,7.59-5.66,3.72-1.9,7.67-3.08,11.82-3.55,3.47-.39,6.94-.35,10.38.3,3.97.75,7.65,2.19,10.96,4.55,2.21,1.58,4.05,3.48,5.45,5.81,1.01,1.68,1.7,3.48,2.04,5.42.32,1.81.31,3.65.36,5.48.02.69.01,1.38.07,2.07.2,2.58.62,5.14,1.13,7.67.05.24.14.46.21.69ZM95.41,94.91s.05-.04.08-.06c-.04-.09-.07-.18-.12-.27-.92-1.56-1.84-3.12-2.75-4.69-1.1-1.91-2.13-3.85-3.41-5.65-1.23-1.72-2.76-3.12-4.64-4.04-2.37-1.17-4.91-1.74-7.58-1.58-2.07.13-6.66.57-5.73,3.81.64,2.22,3.5,1.65,5.23,1.55,2.23-.13,4.38.24,6.43,1.15,2.53,1.12,4.77,2.7,6.83,4.52,1.79,1.58,3.51,3.26,5.26,4.89.13.12.26.24.4.37Z"/>
</svg>
